<?xml version="1.0" encoding="UTF-8"?>
<svg id="znak" xmlns="http://www.w3.org/2000/svg" viewBox="0 0 70 130">
  <defs>
    <style>
      .cls-1 {
        fill: #fff;
        stroke-width: 0px;
      }
    </style>
  </defs>
  <g>
    <path class="cls-1" d="m16.59,126.03h5.29s-5.86-16.47-5.86-16.47c-.66-1.85-2.08-2.14-2.53-2.14h-5.11c.78.64,1.06,1.06,1.06,1.7,0,.39-.09.69-.51,1.95l-5.06,14.96h3.46l1.53-4.64h6.17l1.57,4.64Zm-2.55-7.52h-4.25l2.09-6.35,2.15,6.35Z"/>
    <path class="cls-1" d="m38.05,123.39v-5.94c0-1.14-.24-1.72-1.05-2.44h3.82c1.18,0,2.19.96,2.19,2.17v8.42c-1.87.55-3.76.85-5.49.85-6.62,0-10.81-3.86-10.81-9.57s4.2-9.92,10.9-9.92c1.52,0,2.97.27,4.28.74v3.72c-1.18-.78-2.66-1.24-4.28-1.24-3.21,0-5.74,2.21-5.74,6.3,0,4.34,1.92,6.99,4.99,6.99.39,0,.77-.03,1.18-.11Z"/>
    <path class="cls-1" d="m56.27,109.82c0-1.33-1.05-2.4-2.34-2.4h-3.7c.81.72,1.05,1.3,1.05,2.43v16.18h5v-7.83h5.68v7.83h4.98v-18.56h-4.98v7.58h-5.68v-5.23Z"/>
  </g>
  <g>
    <g>
      <path class="cls-1" d="m48.84,95.01c4.14-2.84,7.75-7.24,7.76-16.54V22.63h4.13v55.83c0,10.34-5.17,14.48-11.89,16.54Z"/>
      <path class="cls-1" d="m52.2,95.01c3.88-1.81,10.6-5.17,10.6-16.54V22.63h4.14v55.83c0,13.96-10.86,16.03-14.73,16.54Z"/>
      <path class="cls-1" d="m46.25,95.01c3.09-3.1,4.14-9.31,4.14-17.58V22.63h4.14v55.83c0,9.28-3.1,13.96-8.27,16.54Z"/>
    </g>
    <g>
      <path class="cls-1" d="m26.09,4.02c4.14,2.84,7.75,7.24,7.75,16.54v64.11h4.14V20.56c0-10.34-5.17-14.48-11.89-16.54Z"/>
      <path class="cls-1" d="m29.46,4.02c3.88,1.81,10.6,5.17,10.6,16.54v64.11h4.13V20.56c0-13.96-10.86-16.03-14.73-16.54Z"/>
      <path class="cls-1" d="m23.51,4.02c3.09,3.1,4.14,9.31,4.14,17.58v63.07h4.14V20.56c0-9.28-3.1-13.96-8.27-16.54Z"/>
    </g>
    <g>
      <path class="cls-1" d="m22.99,95.01c-4.14-2.84-7.75-7.24-7.75-16.54V22.63h-4.14v55.83c0,10.34,5.17,14.48,11.89,16.54Z"/>
      <path class="cls-1" d="m19.63,95.01c-3.88-1.81-10.6-5.17-10.6-16.54V22.63h-4.14v55.83c0,13.96,10.86,16.03,14.73,16.54Z"/>
      <path class="cls-1" d="m25.58,95.01c-3.09-3.1-4.14-9.31-4.14-17.58V22.63h-4.14v55.83c0,9.28,3.1,13.96,8.27,16.54Z"/>
    </g>
  </g>
</svg>