<?xml version="1.0" encoding="UTF-8" standalone="no"?>
<!DOCTYPE svg PUBLIC "-//W3C//DTD SVG 1.1//EN" "http://www.w3.org/Graphics/SVG/1.1/DTD/svg11.dtd">
<svg width="100%" height="100%" viewBox="0 0 967 206" version="1.1" xmlns="http://www.w3.org/2000/svg" xmlns:xlink="http://www.w3.org/1999/xlink" xml:space="preserve" xmlns:serif="http://www.serif.com/" style="fill-rule:evenodd;clip-rule:evenodd;stroke-linejoin:round;stroke-miterlimit:2;">
    <g transform="matrix(1,0,0,1,0.00201625,-0.00224326)">
        <path d="M351.76,3.64C355.13,-0.78 362.52,-1.31 366.36,2.81C369,5.25 369.25,9 369.29,12.4C369.14,37.75 369.29,63.1 369.22,88.45C369.17,98.22 369.8,108.2 367.1,117.7C364.808,125.879 360.586,133.39 354.79,139.6C347.86,147.48 338.94,153.85 328.79,156.67C317.832,159.515 306.291,159.224 295.49,155.83C276.55,149.37 261.15,132.36 257.98,112.41C255.72,98.12 258.19,82.56 267.03,70.82C275.03,59.33 287.08,50.48 300.89,47.67C312.59,45.45 325.1,46.16 336.04,51.1C340.97,53.2 345.24,56.5 349.7,59.42C350.1,43.42 349.7,27.42 349.82,11.42C349.89,8.75 350.07,5.85 351.76,3.64ZM307,66.53C296.53,67.95 287.36,74.73 281.7,83.53C277.23,90.61 275.9,99.33 276.83,107.53C277.9,117.46 283.83,126.46 291.71,132.37C301.04,139.3 313.76,140.91 324.71,137.37C335.12,133.92 343.48,125.37 347.52,115.29C352.2,102.78 349.69,87.53 340.08,77.97C331.764,68.73 319.247,64.401 307,66.53Z" style="fill:rgb(255,255,255);fill-rule:nonzero;"/>
        <path d="M537.79,15.64C541.345,11.501 547.599,10.859 551.92,14.19C554.346,16.235 555.752,19.247 555.76,22.42C556.29,31.68 555.39,40.96 555.98,50.22C562.46,51.03 568.98,49.8 575.48,50.81C580.26,51.48 583.62,56.54 582.73,61.22C582.326,64.689 579.722,67.523 576.3,68.22C569.61,69.55 562.77,68.22 556.03,68.91C555.58,73.76 555.85,78.64 555.86,83.5L555.86,111.55C555.86,115.44 555.86,119.41 557.04,123.16C558.56,128.04 562.26,131.99 566.51,134.7C571.27,137.7 577.27,136.7 582.26,139C587.18,141.68 588.59,148.7 585.42,153.25C583.24,156.9 578.62,157.72 574.7,157.54C558.7,157.15 544,145.78 538.21,131.04C535.21,123.57 535.64,115.38 535.66,107.5C535.66,79.8 535.72,52.11 535.66,24.41C535.67,21.38 535.8,18.07 537.79,15.64Z" style="fill:rgb(255,255,255);fill-rule:nonzero;"/>
        <path d="M43,47.24C52.095,45.441 61.495,45.919 70.36,48.63C78.58,51.246 86.034,55.837 92.07,62C94.2,64.27 96.47,67.07 96.15,70.4C95.74,75.71 90.01,79.93 84.83,78.4C81.08,77.16 78.52,73.96 75.46,71.64C61.4,60 37.64,62.82 27.07,77.87C20.58,86.5 18.88,97.81 20.07,108.32C21.07,117.52 25.32,126.58 32.63,132.41C42.51,140.41 56.56,142.18 68.51,138.41C73.57,136.86 77.41,132.98 82.2,130.91C88,128.6 95,134.19 94.42,140.29C94.05,143 92,145.11 90,146.83C81.58,153.94 70.67,157.67 59.75,158.34C47.02,159.15 33.75,156.34 23.25,148.78C13,141.46 4.85,130.67 1.83,118.29C-0.511,108.218 -0.61,97.754 1.54,87.64C5.72,67.57 22.94,51 43,47.24Z" style="fill:rgb(255,255,255);fill-rule:nonzero;"/>
        <path d="M166,47.16C177.81,45.16 190.39,46.48 201.15,51.94C207.9,55.08 213.7,59.94 218.78,65.3C235.06,82.53 237.78,110.86 225.23,130.95C218.97,140.87 210.05,149.3 199.23,154.01C189.13,158.69 177.55,159.23 166.71,157.29C156.423,155.669 146.871,150.952 139.33,143.77C127.491,133.348 120.816,118.23 121.09,102.46C120.829,88.418 126.118,74.824 135.8,64.65C143.675,55.668 154.29,49.52 166,47.16ZM171.11,66.16C156,68.36 143,81.31 140.85,96.48C139.55,105.7 141.14,115.68 146.85,123.24C150.924,128.885 156.378,133.392 162.69,136.33C170.449,139.221 178.91,139.668 186.93,137.61C196.403,134.925 204.434,128.588 209.25,120C212.186,114.611 213.725,108.572 213.725,102.435C213.725,82.297 197.153,65.725 177.015,65.725C175.044,65.725 173.076,65.884 171.13,66.2L171.11,66.16Z" style="fill:rgb(255,255,255);fill-rule:nonzero;"/>
        <path d="M417.41,59.21C428.28,49.56 443.32,45.11 457.73,46.54C470.087,47.552 481.734,52.758 490.73,61.29C502.34,71.54 509.47,86.91 508.98,102.46C508.81,106.08 506.77,109.79 503.36,111.26C500.58,112.26 497.55,112.2 494.64,112.26C482.27,112.14 469.9,112.17 457.53,112.26C453.53,112.26 449.01,112.12 446,109.11C442.14,105.48 442.66,98.77 446.46,95.3C448.63,93.18 451.82,92.87 454.7,92.74C465.9,92.49 477.12,93.13 488.31,92.53C484.594,79.802 474.399,69.954 461.55,66.68C451.62,64.36 440.55,66.11 432.24,72.15C425.4,77.05 419.84,84.15 417.7,92.34C416.02,98.992 416.02,105.958 417.7,112.61C419.496,118.959 423.071,124.664 428,129.05C431.87,132.65 436.31,135.86 441.47,137.3C449.89,139.61 459.13,139.64 467.28,136.3C471.38,134.63 474.71,131.61 478.61,129.59C482.3,127.59 487.27,129.02 489.73,132.31C492.322,135.491 492.663,139.975 490.58,143.51C488.978,145.554 487.032,147.304 484.83,148.68C478.355,153.201 470.968,156.253 463.19,157.62C456.049,158.764 448.762,158.625 441.67,157.21C420.67,153.21 402.98,135.91 398.35,115.09C395.99,103.09 396.78,90.09 402.12,78.92C405.6,71.25 411.18,64.76 417.41,59.21Z" style="fill:rgb(255,255,255);fill-rule:nonzero;"/>
        <path d="M760.61,48.56C775.772,44.451 791.966,46.581 805.55,54.47C815.118,60.525 822.832,69.105 827.84,79.26C832.12,88.33 833.3,98.62 832.5,108.55C831.1,124.55 821.6,139.17 808.83,148.6C794.08,159.46 773.83,161.3 756.83,155.15C750.7,152.92 745.53,148.86 740,145.52C740,161.18 740,176.84 740.09,192.52C739.98,195.22 740.03,198.13 738.58,200.52C736.736,203.142 733.781,204.771 730.58,204.93C726.164,205.285 722.118,202.303 721.15,197.98C720.757,195.857 720.583,193.699 720.63,191.54C720.76,166.54 720.63,141.54 720.69,116.48C720.74,109.83 720.43,103.15 721.08,96.48C722.82,74.43 739.73,55 760.61,48.56ZM767.06,67.1C757.788,69.538 749.863,75.583 745.06,83.88C739.23,94.25 738.36,107.53 743.57,118.33C747.87,126.98 755.43,134.18 764.66,137.33C772.445,139.73 780.775,139.73 788.56,137.33C798.752,133.633 806.912,125.781 811,115.74C813.966,107.903 814.234,99.296 811.76,91.29C808.999,83.494 803.828,76.776 797,72.11C788.41,66.05 777.11,64.74 767.06,67.1Z" style="fill:rgb(255,255,255);fill-rule:nonzero;"/>
        <path d="M888.61,50.44C897.61,46.34 907.79,45.59 917.5,46.85C929.56,48.24 940.81,54.21 949.41,62.67C960.099,72.751 966.173,86.807 966.19,101.5C966.373,105.104 964.68,108.557 961.72,110.62C959.02,112.27 955.72,112.16 952.72,112.25C940.053,112.157 927.35,112.157 914.61,112.25C910.61,112.2 906.08,112.07 903.14,108.98C898.74,104.63 900.29,96.12 906.04,93.73C910.4,92.18 915.12,92.79 919.66,92.73C928.13,92.67 936.66,93.13 945.08,92.52C943.08,82.22 935.08,73.99 925.98,69.29C917.55,65.06 907.49,64.74 898.58,67.55C886.25,71.74 876.38,82.88 874.24,95.79C872.59,105.42 874.36,115.93 880.45,123.79C885.17,129.84 891.34,135.19 898.83,137.37C907.43,139.72 916.92,139.71 925.18,136.07C928.96,134.42 932.07,131.62 935.71,129.69C938.71,127.9 942.71,128.69 945.37,130.8C949.1,133.7 950.46,139.54 947.72,143.55C945.55,146.45 942.46,148.48 939.46,150.42C923.11,160.99 901.2,160.76 884.09,152.1C870.16,144.54 859.27,131.1 855.7,115.59C852.57,101.32 854.5,85.68 862.45,73.25C868.87,63.45 877.72,55 888.61,50.44Z" style="fill:rgb(255,255,255);fill-rule:nonzero;"/>
        <path d="M596,53.88C597.71,48.4 604.79,45.66 609.84,48.19C612.41,49.65 613.84,52.41 615.18,54.91C627.06,78.75 638.89,102.62 651.18,126.27C661.18,102.69 671.98,79.45 682.18,55.93C683.53,53.16 684.73,49.93 687.52,48.3C691.3,46.37 695.97,47.51 699.33,49.82C701.707,51.449 702.891,54.353 702.33,57.18C701.33,62.24 698.65,66.74 696.63,71.43C678.13,113.21 659.39,154.89 640.9,196.67C639.67,199.3 638.52,202.1 636.41,204.16C634.3,206.22 630.73,206.16 627.99,205.22C624.99,204.29 621.69,202.45 620.99,199.12C620.29,195.79 621.9,192.28 623.22,189.12C628.74,177.22 633.81,165.12 639.37,153.24C640.26,151.07 641.43,148.9 641.52,146.52C641.013,144.551 640.246,142.657 639.24,140.89C625.32,115.07 611.88,89 598,63.09C596.64,60.27 594.92,57.07 596,53.88Z" style="fill:rgb(255,255,255);fill-rule:nonzero;"/>
    </g>
</svg>
